<svg width="16" height="16" viewBox="0 0 16 16" fill="none" xmlns="http://www.w3.org/2000/svg">
<path d="M0.666626 13.3337V11.467C0.666626 11.0892 0.763848 10.742 0.958293 10.4253C1.15274 10.1087 1.41107 9.86699 1.73329 9.70033C2.42218 9.35588 3.12218 9.09755 3.83329 8.92533C4.5444 8.7531 5.26663 8.66699 5.99996 8.66699C6.73329 8.66699 7.45552 8.7531 8.16663 8.92533C8.87774 9.09755 9.57774 9.35588 10.2666 9.70033C10.5888 9.86699 10.8472 10.1087 11.0416 10.4253C11.2361 10.742 11.3333 11.0892 11.3333 11.467V13.3337H0.666626ZM12.6666 13.3337V11.3337C12.6666 10.8448 12.5305 10.3753 12.2583 9.92533C11.9861 9.47533 11.6 9.08921 11.1 8.76699C11.6666 8.83366 12.2 8.94755 12.7 9.10866C13.2 9.26977 13.6666 9.46699 14.1 9.70033C14.5 9.92255 14.8055 10.1698 15.0166 10.442C15.2277 10.7142 15.3333 11.0114 15.3333 11.3337V13.3337H12.6666ZM5.99996 8.00033C5.26663 8.00033 4.63885 7.73921 4.11663 7.21699C3.5944 6.69477 3.33329 6.06699 3.33329 5.33366C3.33329 4.60033 3.5944 3.97255 4.11663 3.45033C4.63885 2.9281 5.26663 2.66699 5.99996 2.66699C6.73329 2.66699 7.36107 2.9281 7.88329 3.45033C8.40552 3.97255 8.66663 4.60033 8.66663 5.33366C8.66663 6.06699 8.40552 6.69477 7.88329 7.21699C7.36107 7.73921 6.73329 8.00033 5.99996 8.00033ZM12.6666 5.33366C12.6666 6.06699 12.4055 6.69477 11.8833 7.21699C11.3611 7.73921 10.7333 8.00033 9.99996 8.00033C9.87774 8.00033 9.72218 7.98644 9.53329 7.95866C9.3444 7.93088 9.18885 7.90033 9.06663 7.86699C9.36663 7.51144 9.59718 7.11699 9.75829 6.68366C9.9194 6.25033 9.99996 5.80033 9.99996 5.33366C9.99996 4.86699 9.9194 4.41699 9.75829 3.98366C9.59718 3.55033 9.36663 3.15588 9.06663 2.80033C9.22218 2.74477 9.37774 2.70866 9.53329 2.69199C9.68885 2.67533 9.8444 2.66699 9.99996 2.66699C10.7333 2.66699 11.3611 2.9281 11.8833 3.45033C12.4055 3.97255 12.6666 4.60033 12.6666 5.33366ZM1.99996 12.0003H9.99996V11.467C9.99996 11.3448 9.9694 11.2337 9.90829 11.1337C9.84718 11.0337 9.76663 10.9559 9.66663 10.9003C9.06663 10.6003 8.46107 10.3753 7.84996 10.2253C7.23885 10.0753 6.62218 10.0003 5.99996 10.0003C5.37774 10.0003 4.76107 10.0753 4.14996 10.2253C3.53885 10.3753 2.93329 10.6003 2.33329 10.9003C2.23329 10.9559 2.15274 11.0337 2.09163 11.1337C2.03051 11.2337 1.99996 11.3448 1.99996 11.467V12.0003ZM5.99996 6.66699C6.36663 6.66699 6.68052 6.53644 6.94163 6.27533C7.20274 6.01421 7.33329 5.70033 7.33329 5.33366C7.33329 4.96699 7.20274 4.6531 6.94163 4.39199C6.68052 4.13088 6.36663 4.00033 5.99996 4.00033C5.63329 4.00033 5.3194 4.13088 5.05829 4.39199C4.79718 4.6531 4.66663 4.96699 4.66663 5.33366C4.66663 5.70033 4.79718 6.01421 5.05829 6.27533C5.3194 6.53644 5.63329 6.66699 5.99996 6.66699Z" fill="white"/>
</svg>
