<svg width="16" height="16" viewBox="0 0 16 16" fill="none" xmlns="http://www.w3.org/2000/svg">
<path d="M9.28337 7.3668L6.45004 4.53346L7.40004 3.60013L9.28337 5.48346L13.0667 1.7168L14 2.65013L9.28337 7.3668ZM5.33337 12.3335L9.96671 13.6001L13.9334 12.3668C13.8778 12.2668 13.7973 12.1807 13.6917 12.1085C13.5862 12.0362 13.4667 12.0001 13.3334 12.0001H9.96671C9.66671 12.0001 9.42782 11.989 9.25004 11.9668C9.07226 11.9446 8.88893 11.9001 8.70004 11.8335L7.15004 11.3168L7.51671 10.0168L8.86671 10.4668C9.0556 10.5224 9.27782 10.5668 9.53337 10.6001C9.78893 10.6335 10.1667 10.6557 10.6667 10.6668C10.6667 10.5446 10.6306 10.4279 10.5584 10.3168C10.4862 10.2057 10.4 10.1335 10.3 10.1001L6.40004 8.6668H5.33337V12.3335ZM1.33337 14.6668V7.33346H6.40004C6.47782 7.33346 6.5556 7.3418 6.63337 7.35846C6.71115 7.37513 6.78337 7.39457 6.85004 7.4168L10.7667 8.8668C11.1334 9.00013 11.4306 9.23346 11.6584 9.5668C11.8862 9.90013 12 10.2668 12 10.6668H13.3334C13.8889 10.6668 14.3612 10.8501 14.75 11.2168C15.1389 11.5835 15.3334 12.0668 15.3334 12.6668V13.3335L10 15.0001L5.33337 13.7001V14.6668H1.33337ZM2.66671 13.3335H4.00004V8.6668H2.66671V13.3335Z" fill="#101010"/>
</svg>
