<svg width="16" height="16" viewBox="0 0 16 16" fill="none" xmlns="http://www.w3.org/2000/svg">
<path d="M7.9167 13.333C7.96114 13.333 8.00559 13.3219 8.05003 13.2997C8.09448 13.2775 8.12781 13.2552 8.15003 13.233L13.6167 7.76634C13.75 7.63301 13.8473 7.48301 13.9084 7.31634C13.9695 7.14967 14 6.98301 14 6.81634C14 6.63856 13.9695 6.46912 13.9084 6.30801C13.8473 6.1469 13.75 6.00523 13.6167 5.88301L10.7834 3.04967C10.6611 2.91634 10.5195 2.81912 10.3584 2.75801C10.1973 2.6969 10.0278 2.66634 9.85003 2.66634C9.68337 2.66634 9.5167 2.6969 9.35003 2.75801C9.18337 2.81912 9.03337 2.91634 8.90003 3.04967L8.7167 3.23301L9.95003 4.48301C10.1167 4.63856 10.2389 4.81634 10.3167 5.01634C10.3945 5.21634 10.4334 5.42745 10.4334 5.64967C10.4334 6.11634 10.275 6.50801 9.95837 6.82467C9.6417 7.14134 9.25003 7.29967 8.78337 7.29967C8.56114 7.29967 8.34726 7.26079 8.1417 7.18301C7.93614 7.10523 7.75559 6.98856 7.60003 6.83301L6.35003 5.59967L3.43337 8.51634C3.40003 8.54967 3.37503 8.58579 3.35837 8.62467C3.3417 8.66356 3.33337 8.70523 3.33337 8.74967C3.33337 8.83856 3.3667 8.91912 3.43337 8.99134C3.50003 9.06356 3.57781 9.09967 3.6667 9.09967C3.71115 9.09967 3.75559 9.08856 3.80003 9.06634C3.84448 9.04412 3.87781 9.0219 3.90003 8.99967L6.1667 6.73301L7.10003 7.66634L4.85003 9.93301C4.8167 9.96634 4.7917 10.0025 4.77503 10.0413C4.75837 10.0802 4.75003 10.1219 4.75003 10.1663C4.75003 10.2552 4.78337 10.333 4.85003 10.3997C4.9167 10.4663 4.99448 10.4997 5.08337 10.4997C5.12781 10.4997 5.17226 10.4886 5.2167 10.4663C5.26114 10.4441 5.29448 10.4219 5.3167 10.3997L7.58337 8.14967L8.5167 9.08301L6.2667 11.3497C6.23337 11.3719 6.20837 11.4052 6.1917 11.4497C6.17503 11.4941 6.1667 11.5386 6.1667 11.583C6.1667 11.6719 6.20003 11.7497 6.2667 11.8163C6.33337 11.883 6.41114 11.9163 6.50003 11.9163C6.54448 11.9163 6.58614 11.908 6.62503 11.8913C6.66392 11.8747 6.70003 11.8497 6.73337 11.8163L9.00003 9.56634L9.93337 10.4997L7.6667 12.7663C7.63337 12.7997 7.60837 12.8358 7.5917 12.8747C7.57503 12.9136 7.5667 12.9552 7.5667 12.9997C7.5667 13.0886 7.60281 13.1663 7.67503 13.233C7.74726 13.2997 7.82781 13.333 7.9167 13.333ZM7.90003 14.6663C7.48892 14.6663 7.12503 14.5302 6.80837 14.258C6.4917 13.9858 6.30559 13.6441 6.25003 13.233C5.87226 13.1775 5.55559 13.0219 5.30003 12.7663C5.04448 12.5108 4.88892 12.1941 4.83337 11.8163C4.45559 11.7608 4.1417 11.6025 3.8917 11.3413C3.6417 11.0802 3.48892 10.7663 3.43337 10.3997C3.01115 10.3441 2.6667 10.1608 2.40003 9.84967C2.13337 9.53856 2.00003 9.1719 2.00003 8.74967C2.00003 8.52745 2.0417 8.31356 2.12503 8.10801C2.20837 7.90245 2.32781 7.7219 2.48337 7.56634L6.35003 3.71634L8.53337 5.89967C8.55559 5.93301 8.58892 5.95801 8.63337 5.97467C8.67781 5.99134 8.72226 5.99967 8.7667 5.99967C8.8667 5.99967 8.95003 5.96912 9.0167 5.90801C9.08337 5.8469 9.1167 5.76634 9.1167 5.66634C9.1167 5.6219 9.10837 5.57745 9.0917 5.53301C9.07503 5.48856 9.05003 5.45523 9.0167 5.43301L6.63337 3.04967C6.51114 2.91634 6.36948 2.81912 6.20837 2.75801C6.04726 2.6969 5.87781 2.66634 5.70003 2.66634C5.53337 2.66634 5.3667 2.6969 5.20003 2.75801C5.03337 2.81912 4.88337 2.91634 4.75003 3.04967L2.40003 5.41634C2.30003 5.51634 2.2167 5.63301 2.15003 5.76634C2.08337 5.89967 2.03892 6.03301 2.0167 6.16634C1.99448 6.29967 1.99448 6.43579 2.0167 6.57467C2.03892 6.71356 2.08337 6.84412 2.15003 6.96634L1.18337 7.93301C0.994479 7.67745 0.85559 7.3969 0.766701 7.09134C0.677812 6.78579 0.644479 6.47745 0.666701 6.16634C0.688923 5.85523 0.766701 5.55245 0.900034 5.25801C1.03337 4.96356 1.2167 4.69967 1.45003 4.46634L3.80003 2.11634C4.0667 1.86079 4.36392 1.66634 4.6917 1.53301C5.01948 1.39967 5.35559 1.33301 5.70003 1.33301C6.04448 1.33301 6.38059 1.39967 6.70837 1.53301C7.03614 1.66634 7.32781 1.86079 7.58337 2.11634L7.7667 2.29967L7.95003 2.11634C8.2167 1.86079 8.51392 1.66634 8.8417 1.53301C9.16948 1.39967 9.50559 1.33301 9.85003 1.33301C10.1945 1.33301 10.5306 1.39967 10.8584 1.53301C11.1861 1.66634 11.4778 1.86079 11.7334 2.11634L14.55 4.93301C14.8056 5.18856 15 5.48301 15.1334 5.81634C15.2667 6.14967 15.3334 6.48856 15.3334 6.83301C15.3334 7.17745 15.2667 7.51356 15.1334 7.84134C15 8.16912 14.8056 8.46079 14.55 8.71634L9.08337 14.1663C8.92781 14.3219 8.74726 14.4441 8.5417 14.533C8.33614 14.6219 8.12226 14.6663 7.90003 14.6663Z" fill="#101010"/>
</svg>
