<svg width="16" height="17" viewBox="0 0 16 17" fill="none" xmlns="http://www.w3.org/2000/svg">
<path d="M2.66659 14.2604C2.29992 14.2604 1.98603 14.1299 1.72492 13.8688C1.46381 13.6076 1.33325 13.2938 1.33325 12.9271V4.92708C1.33325 4.56042 1.46381 4.24653 1.72492 3.98542C1.98603 3.72431 2.29992 3.59375 2.66659 3.59375H13.3333C13.6999 3.59375 14.0138 3.72431 14.2749 3.98542C14.536 4.24653 14.6666 4.56042 14.6666 4.92708V12.9271C14.6666 13.2938 14.536 13.6076 14.2749 13.8688C14.0138 14.1299 13.6999 14.2604 13.3333 14.2604H2.66659ZM7.99992 9.59375L2.66659 6.26042V12.9271H13.3333V6.26042L7.99992 9.59375ZM7.99992 8.26042L13.3333 4.92708H2.66659L7.99992 8.26042ZM2.66659 6.26042V4.92708V12.9271V6.26042Z" fill="#101010"/>
</svg>
