<svg width="17" height="17" viewBox="0 0 17 17" fill="none" xmlns="http://www.w3.org/2000/svg">
<path d="M3.52132 14.2604C3.15465 14.2604 2.84077 14.1299 2.57965 13.8688C2.31854 13.6076 2.18799 13.2938 2.18799 12.9271V4.92708C2.18799 4.56042 2.31854 4.24653 2.57965 3.98542C2.84077 3.72431 3.15465 3.59375 3.52132 3.59375H14.188C14.5547 3.59375 14.8685 3.72431 15.1297 3.98542C15.3908 4.24653 15.5213 4.56042 15.5213 4.92708V12.9271C15.5213 13.2938 15.3908 13.6076 15.1297 13.8688C14.8685 14.1299 14.5547 14.2604 14.188 14.2604H3.52132ZM8.85465 9.59375L3.52132 6.26042V12.9271H14.188V6.26042L8.85465 9.59375ZM8.85465 8.26042L14.188 4.92708H3.52132L8.85465 8.26042ZM3.52132 6.26042V4.92708V12.9271V6.26042Z" fill="white"/>
</svg>
